<svg width="130" height="130" viewBox="0 0 130 130" fill="none" xmlns="http://www.w3.org/2000/svg">
<path d="M67.5654 6.195C66.1471 7.61347 63.853 7.61347 62.4347 6.195C61.0163 4.77652 61.0163 2.48233 62.4347 1.06386C63.853 -0.354618 66.1471 -0.354618 67.5654 1.06386C68.9837 2.48233 68.9837 4.77652 67.5654 6.195ZM82.9081 16.408C81.4897 14.9895 79.1957 14.9895 77.7774 16.408C76.3591 17.8265 76.3591 20.1207 77.7774 21.5392C79.1957 22.9577 81.4897 22.9577 82.9081 21.5392C84.3264 20.1207 84.3264 17.8265 82.9081 16.408ZM98.2508 31.7522C96.8325 30.3337 94.5385 30.3337 93.1201 31.7522C91.7018 33.1707 91.7018 35.4649 93.1201 36.8834C94.5385 38.3018 96.8325 38.3018 98.2508 36.8834C99.6691 35.4649 99.6691 33.1707 98.2508 31.7522ZM113.594 47.0964C112.175 45.6779 109.881 45.6779 108.463 47.0964C107.045 48.5149 107.045 50.8091 108.463 52.2276C109.881 53.646 112.175 53.646 113.594 52.2276C115.012 50.8091 115.012 48.5149 113.594 47.0964ZM128.936 62.4406C127.518 61.0221 125.224 61.0221 123.806 62.4406C122.387 63.859 122.387 66.1533 123.806 67.5717C125.224 68.9902 127.518 68.9902 128.936 67.5717C130.355 66.1533 130.355 63.859 128.936 62.4406ZM52.2227 16.408C50.8043 14.9895 48.5103 14.9895 47.0919 16.408C45.6736 17.8265 45.6736 20.1207 47.0919 21.5392C48.5103 22.9577 50.8043 22.9577 52.2227 21.5392C53.641 20.1207 53.641 17.8265 52.2227 16.408ZM67.5654 31.7522C66.1471 30.3337 63.853 30.3337 62.4347 31.7522C61.0163 33.1707 61.0163 35.4649 62.4347 36.8834C63.853 38.3018 66.1471 38.3018 67.5654 36.8834C68.9837 35.4649 68.9837 33.1707 67.5654 31.7522ZM82.9081 47.0964C81.4897 45.6779 79.1957 45.6779 77.7774 47.0964C76.3591 48.5149 76.3591 50.8091 77.7774 52.2276C79.1957 53.646 81.4897 53.646 82.9081 52.2276C84.3264 50.8091 84.3264 48.5149 82.9081 47.0964ZM98.2508 62.4406C96.8325 61.0221 94.5385 61.0221 93.1201 62.4406C91.7018 63.859 91.7018 66.1533 93.1201 67.5717C94.5385 68.9902 96.8325 68.9902 98.2508 67.5717C99.6691 66.1533 99.6691 63.859 98.2508 62.4406ZM113.594 77.7848C112.175 76.3663 109.881 76.3663 108.463 77.7848C107.045 79.2032 107.045 81.4975 108.463 82.9159C109.881 84.3344 112.175 84.3344 113.594 82.9159C115.012 81.4975 115.012 79.2032 113.594 77.7848ZM36.8799 31.7522C35.4616 30.3337 33.1676 30.3337 31.7492 31.7522C30.3309 33.1707 30.3309 35.4649 31.7492 36.8834C33.1676 38.3018 35.4616 38.3018 36.8799 36.8834C38.2983 35.4649 38.2983 33.1707 36.8799 31.7522ZM52.2227 47.0964C50.8043 45.6779 48.5103 45.6779 47.0919 47.0964C45.6736 48.5149 45.6736 50.8091 47.0919 52.2276C48.5103 53.646 50.8043 53.646 52.2227 52.2276C53.641 50.8091 53.641 48.5149 52.2227 47.0964ZM67.5654 62.4406C66.1471 61.0221 63.853 61.0221 62.4347 62.4406C61.0163 63.859 61.0163 66.1533 62.4347 67.5717C63.853 68.9902 66.1471 68.9902 67.5654 67.5717C68.9837 66.1533 68.9837 63.859 67.5654 62.4406ZM82.9081 77.7848C81.4897 76.3663 79.1957 76.3663 77.7774 77.7848C76.3591 79.2032 76.3591 81.4975 77.7774 82.9159C79.1957 84.3344 81.4897 84.3344 82.9081 82.9159C84.3264 81.4975 84.3264 79.2032 82.9081 77.7848ZM98.2508 93.1289C96.8325 91.7105 94.5385 91.7105 93.1201 93.1289C91.7018 94.5474 91.7018 96.8416 93.1201 98.2601C94.5385 99.6786 96.8325 99.6786 98.2508 98.2601C99.6691 96.8416 99.6691 94.5351 98.2508 93.1289ZM21.5372 47.0964C20.1189 45.6779 17.8248 45.6779 16.4065 47.0964C14.9881 48.5149 14.9881 50.8091 16.4065 52.2276C17.8248 53.646 20.1189 53.646 21.5372 52.2276C22.9556 50.8091 22.9556 48.5149 21.5372 47.0964ZM36.8799 62.4406C35.4616 61.0221 33.1676 61.0221 31.7492 62.4406C30.3309 63.859 30.3309 66.1533 31.7492 67.5717C33.1676 68.9902 35.4616 68.9902 36.8799 67.5717C38.2983 66.1533 38.2983 63.859 36.8799 62.4406ZM52.2227 77.7848C50.8043 76.3663 48.5103 76.3663 47.0919 77.7848C45.6736 79.2032 45.6736 81.4975 47.0919 82.9159C48.5103 84.3344 50.8043 84.3344 52.2227 82.9159C53.641 81.4975 53.641 79.2032 52.2227 77.7848ZM67.5654 93.1289C66.1471 91.7105 63.853 91.7105 62.4347 93.1289C61.0163 94.5474 61.0163 96.8416 62.4347 98.2601C63.853 99.6786 66.1471 99.6786 67.5654 98.2601C68.9837 96.8416 68.9837 94.5351 67.5654 93.1289ZM82.9081 108.473C81.4897 107.055 79.1957 107.055 77.7774 108.473C76.3591 109.892 76.3591 112.186 77.7774 113.604C79.1957 115.023 81.4897 115.023 82.9081 113.604C84.3264 112.186 84.3264 109.879 82.9081 108.473ZM6.19448 62.4406C4.77614 61.0221 2.48209 61.0221 1.06375 62.4406C-0.354585 63.859 -0.354585 66.1533 1.06375 67.5717C2.48209 68.9902 4.77614 68.9902 6.19448 67.5717C7.61282 66.1533 7.61282 63.859 6.19448 62.4406ZM21.5372 77.7848C20.1189 76.3663 17.8248 76.3663 16.4065 77.7848C14.9881 79.2032 14.9881 81.4975 16.4065 82.9159C17.8248 84.3344 20.1189 84.3344 21.5372 82.9159C22.9556 81.4975 22.9556 79.2032 21.5372 77.7848ZM36.8799 93.1289C35.4616 91.7105 33.1676 91.7105 31.7492 93.1289C30.3309 94.5474 30.3309 96.8416 31.7492 98.2601C33.1676 99.6786 35.4616 99.6786 36.8799 98.2601C38.2983 96.8416 38.2983 94.5351 36.8799 93.1289ZM52.2227 108.473C50.8043 107.055 48.5103 107.055 47.0919 108.473C45.6736 109.892 45.6736 112.186 47.0919 113.604C48.5103 115.023 50.8043 115.023 52.2227 113.604C53.641 112.186 53.641 109.879 52.2227 108.473ZM67.5654 123.805C66.1471 122.386 63.853 122.386 62.4347 123.805C61.0163 125.223 61.0163 127.518 62.4347 128.936C63.853 130.355 66.1471 130.355 67.5654 128.936C68.9837 127.53 68.9837 125.223 67.5654 123.805Z" fill="black"/>
</svg>
