<svg width="117" height="117" viewBox="0 0 117 117" fill="none" xmlns="http://www.w3.org/2000/svg">
<path d="M33.8132 5.28037C33.2085 7.19298 31.1727 8.25056 29.2602 7.64569C27.3476 7.04081 26.29 5.00495 26.8947 3.09234C27.4994 1.17972 29.5351 0.122142 31.4477 0.72702C33.3602 1.3319 34.4179 3.36775 33.8132 5.28037ZM52.1365 7.27023C50.2239 6.66535 48.1882 7.72289 47.5835 9.63551C46.9788 11.5481 48.0365 13.584 49.9491 14.1889C51.8616 14.7938 53.8973 13.7362 54.502 11.8236C55.1067 9.91099 54.049 7.8751 52.1365 7.27023ZM72.8253 13.8134C70.9128 13.2086 68.8771 14.2661 68.2724 16.1787C67.6677 18.0913 68.7254 20.1272 70.6379 20.7321C72.5505 21.337 74.5862 20.2794 75.1909 18.3668C75.7956 16.4542 74.7379 14.4183 72.8253 13.8134ZM93.5142 20.3566C91.6017 19.7518 89.566 20.8093 88.9613 22.7219C88.3566 24.6345 89.4143 26.6704 91.3268 27.2753C93.2394 27.8802 95.275 26.8226 95.8797 24.91C96.4844 22.9974 95.4268 20.9615 93.5142 20.3566ZM114.203 26.8998C112.291 26.295 110.255 27.3525 109.65 29.2651C109.045 31.1777 110.103 33.2136 112.016 33.8185C113.928 34.4234 115.964 33.3658 116.569 31.4532C117.173 29.5406 116.116 27.5047 114.203 26.8998ZM24.9064 21.4165C22.9938 20.8116 20.9581 21.8692 20.3534 23.7818C19.7487 25.6944 20.8064 27.7303 22.7189 28.3352C24.6315 28.9401 26.6672 27.8825 27.2719 25.9699C27.8766 24.0573 26.8189 22.0214 24.9064 21.4165ZM45.5953 27.9597C43.6827 27.3548 41.647 28.4124 41.0423 30.325C40.4376 32.2376 41.4953 34.2735 43.4078 34.8784C45.3204 35.4833 47.3561 34.4257 47.9608 32.5131C48.5655 30.6005 47.5078 28.5646 45.5953 27.9597ZM66.2841 34.5029C64.3715 33.8981 62.3359 34.9556 61.7312 36.8682C61.1265 38.7808 62.1841 40.8167 64.0967 41.4216C66.0093 42.0265 68.0449 40.9689 68.6496 39.0563C69.2543 37.1437 68.1967 35.1078 66.2841 34.5029ZM86.973 41.0461C85.0604 40.4413 83.0248 41.4988 82.4201 43.4114C81.8154 45.324 82.873 47.3599 84.7856 47.9648C86.6981 48.5697 88.7338 47.5121 89.3385 45.5995C89.9432 43.6869 88.8855 41.651 86.973 41.0461ZM107.662 47.5893C105.749 46.9845 103.714 48.042 103.109 49.9546C102.504 51.8672 103.562 53.9031 105.474 54.508C107.387 55.1129 109.423 54.0553 110.027 52.1427C110.632 50.2301 109.574 48.1942 107.662 47.5893ZM18.3651 42.106C16.4526 41.5011 14.4169 42.5587 13.8122 44.4713C13.2075 46.3839 14.2651 48.4198 16.1777 49.0247C18.0902 49.6296 20.126 48.572 20.7307 46.6594C21.3354 44.7468 20.2777 42.7109 18.3651 42.106ZM39.054 48.6492C37.1415 48.0443 35.1057 49.1019 34.501 51.0145C33.8964 52.9271 34.954 54.963 36.8666 55.5679C38.7791 56.1728 40.8149 55.1152 41.4196 53.2026C42.0243 51.29 40.9666 49.2541 39.054 48.6492ZM59.7429 55.1924C57.8304 54.5875 55.7946 55.6451 55.1899 57.5577C54.5852 59.4703 55.6429 61.5062 57.5555 62.1111C59.468 62.716 61.5037 61.6584 62.1084 59.7458C62.7131 57.8332 61.6555 55.7973 59.7429 55.1924ZM80.4317 61.7356C78.5192 61.1308 76.4835 62.1883 75.8788 64.1009C75.2741 66.0135 76.3318 68.0494 78.2443 68.6543C80.1569 69.2592 82.1926 68.2016 82.7973 66.289C83.402 64.3764 82.3443 62.3405 80.4317 61.7356ZM101.121 68.2789C99.2081 67.674 97.1724 68.7315 96.5677 70.6441C95.963 72.5568 97.0207 74.5926 98.9332 75.1975C100.846 75.8024 102.881 74.7449 103.486 72.8322C104.091 70.9196 103.027 68.8728 101.121 68.2789ZM11.8239 62.7955C9.91135 62.1906 7.87562 63.2482 7.27092 65.1608C6.66623 67.0734 7.72389 69.1093 9.63645 69.7142C11.549 70.3191 13.5847 69.2615 14.1894 67.3489C14.7941 65.4363 13.7365 63.4004 11.8239 62.7955ZM32.5128 69.3387C30.6002 68.7338 28.5645 69.7914 27.9598 71.704C27.3551 73.6166 28.4128 75.6525 30.3253 76.2574C32.2379 76.8623 34.2736 75.8047 34.8783 73.8921C35.483 71.9795 34.4253 69.9436 32.5128 69.3387ZM53.2017 75.8819C51.2891 75.277 49.2534 76.3346 48.6487 78.2472C48.044 80.1598 49.1017 82.1957 51.0142 82.8006C52.9268 83.4055 54.9625 82.3479 55.5672 80.4353C56.1719 78.5227 55.1142 76.4868 53.2017 75.8819ZM73.8906 82.4251C71.978 81.8202 69.9423 82.8778 69.3376 84.7904C68.7329 86.7031 69.7905 88.7389 71.7031 89.3438C73.6157 89.9487 75.6514 88.8911 76.2561 86.9785C76.8608 85.0659 75.7974 83.0191 73.8906 82.4251ZM94.5794 88.9684C92.6668 88.3635 90.6312 89.421 90.0265 91.3336C89.4218 93.2463 90.4794 95.2821 92.392 95.887C94.3045 96.4919 96.3402 95.4344 96.9449 93.5217C97.5496 91.6091 96.4863 89.5623 94.5794 88.9684ZM5.28267 83.485C3.37011 82.8801 1.33438 83.9377 0.729682 85.8503C0.124986 87.7629 1.18265 89.7988 3.09521 90.4037C5.00776 91.0086 7.04349 89.951 7.64819 88.0384C8.25289 86.1258 7.19522 84.0899 5.28267 83.485ZM25.9715 90.0282C24.059 89.4233 22.0233 90.4809 21.4186 92.3935C20.8139 94.3061 21.8715 96.342 23.7841 96.9469C25.6966 97.5518 27.7324 96.4942 28.3371 94.5816C28.9418 92.669 27.8841 90.6331 25.9715 90.0282ZM46.6604 96.5714C44.7479 95.9665 42.7121 97.0241 42.1075 98.9367C41.5028 100.849 42.5604 102.885 44.473 103.49C46.3855 104.095 48.4213 103.037 49.026 101.125C49.6307 99.2122 48.5673 97.1654 46.6604 96.5714ZM67.3493 103.115C65.4368 102.51 63.401 103.567 62.7963 105.48C62.1916 107.393 63.2493 109.428 65.1619 110.033C67.0744 110.638 69.1101 109.581 69.7148 107.668C70.3195 105.755 69.2562 103.709 67.3493 103.115ZM88.0325 109.647C86.12 109.042 84.0842 110.1 83.4795 112.012C82.8748 113.925 83.9325 115.961 85.845 116.566C87.7576 117.17 89.7933 116.113 90.398 114.2C91.0084 112.299 89.9451 110.252 88.0325 109.647Z" fill="#4B4949"/>
</svg>
