<svg width="376" height="119" viewBox="0 0 376 119" fill="none" xmlns="http://www.w3.org/2000/svg">
<path d="M187.064 75.8218C107.04 75.8218 42.1622 11.4277 42.1622 -68" stroke="#AAAAAA" stroke-miterlimit="10"/>
<path d="M331.966 -68C331.966 11.4277 267.088 75.8218 187.064 75.8218" stroke="#AAAAAA" stroke-width="4" stroke-miterlimit="10"/>
<path d="M187.064 75.8218C107.04 75.8218 42.1622 11.4277 42.1622 -68" stroke="#AAAAAA" stroke-miterlimit="10"/>
<path d="M331.966 -68C331.966 11.4277 267.088 75.8218 187.064 75.8218" stroke="#AAAAAA" stroke-width="4" stroke-miterlimit="10"/>
<path d="M187.064 89.1014C99.649 89.1014 28.7827 18.7636 28.7827 -68" stroke="#AAAAAA" stroke-miterlimit="10"/>
<path d="M345.346 -68C345.346 18.7636 274.479 89.1014 187.064 89.1015" stroke="#AAAAAA" stroke-width="4" stroke-miterlimit="10"/>
<path d="M187.064 89.1014C99.649 89.1014 28.7827 18.7636 28.7827 -68" stroke="#AAAAAA" stroke-miterlimit="10"/>
<path d="M345.346 -68C345.346 18.7636 274.479 89.1014 187.064 89.1015" stroke="#AAAAAA" stroke-width="4" stroke-miterlimit="10"/>
<path d="M187.064 102.325C92.2861 102.325 15.4594 26.0716 15.4594 -68" stroke="#AAAAAA" stroke-miterlimit="10"/>
<path d="M358.669 -68C358.669 26.0716 281.842 102.325 187.064 102.325" stroke="#AAAAAA" stroke-width="4" stroke-miterlimit="10"/>
<path d="M187.064 116.677C84.306 116.677 0.999996 33.9921 0.999992 -68" stroke="#AAAAAA" stroke-miterlimit="10"/>
<path d="M373.128 -68C373.128 33.9921 289.822 116.677 187.064 116.677" stroke="#AAAAAA" stroke-width="4" stroke-miterlimit="10"/>
</svg>
