<svg width="965" height="720" viewBox="0 0 965 720" fill="none" xmlns="http://www.w3.org/2000/svg">
<path d="M29.7593 -5.10337L142.354 18.6139L130.09 -95.7525L159.744 -122.545L179.262 59.454L0.0811776 21.711L29.7593 -5.10337Z" fill="black" fill-opacity="0.03"/>
<path d="M320.79 -268.052L350.468 -294.866L369.899 -112.793L190.724 -150.536L220.402 -177.35L333.001 -153.631L320.79 -268.052Z" fill="black" fill-opacity="0.03"/>
<path d="M78.3448 139.492L41.4474 98.6541L255.388 143.719L232.083 -73.5949L446.034 -28.5262L422.833 -245.934L459.731 -205.095L482.932 12.312L268.99 -32.7547L292.295 184.559L78.3448 139.492Z" fill="black" fill-opacity="0.03"/>
<path d="M191.378 264.597L154.481 223.759L368.421 268.824L345.116 51.5103L559.068 96.5789L535.866 -120.829L572.764 -79.9904L595.965 137.417L382.023 92.3504L405.328 309.664L191.378 264.597Z" fill="black" fill-opacity="0.03"/>
<path d="M304.411 389.702L267.514 348.864L481.454 393.929L458.149 176.615L672.101 221.684L648.9 4.27623L685.797 45.1146L708.998 262.522L495.056 217.455L518.361 434.769L304.411 389.702Z" fill="black" fill-opacity="0.03"/>
<path d="M417.445 514.807L380.547 473.969L594.488 519.034L571.183 301.72L785.134 346.789L761.933 129.381L798.83 170.22L822.032 387.627L608.09 342.56L631.395 559.874L417.445 514.807Z" fill="black" fill-opacity="0.03"/>
<path d="M530.478 639.912L493.58 599.074L707.521 644.139L684.216 426.825L898.167 471.894L874.966 254.486L911.864 295.325L935.065 512.732L721.123 467.665L744.428 684.979L530.478 639.912Z" fill="black" fill-opacity="0.03"/>
<path d="M643.511 765.017L606.614 724.179L820.554 769.244L797.249 551.93L1011.2 596.999L987.999 379.591L1024.9 420.43L1048.1 637.837L834.156 592.771L857.461 810.084L643.511 765.017Z" fill="black" fill-opacity="0.03"/>
<path d="M756.544 890.123L719.647 849.285L821.002 870.634L791.324 897.449L756.544 890.123Z" fill="black" fill-opacity="0.03"/>
<path d="M981.967 725.202L947.189 717.876L950.978 753.201L921.324 779.993L910.282 677.036L1011.64 698.387L981.967 725.202Z" fill="black" fill-opacity="0.03"/>
<path d="M1101.03 504.697L1112.02 607.694L1141.7 580.88L1137.93 545.535L1101.03 504.697Z" fill="black" fill-opacity="0.03"/>
</svg>
