<svg width="650" height="701" viewBox="0 0 650 701" fill="none" xmlns="http://www.w3.org/2000/svg">
<path d="M55.6508 -25.5717L144.277 32.6657L232.806 -25.5717H285.167L144.285 67.1055L3.24763 -25.5717H55.6508Z" fill="#A0A0A0" fill-opacity="0.13"/>
<path d="M569.53 -25.5717H621.932L480.901 67.1031L339.869 -25.5717H392.272L480.901 32.6682L569.53 -25.5717Z" fill="#A0A0A0" fill-opacity="0.13"/>
<path d="M-24.1204 61.9336V27.4988L144.277 138.155L312.496 27.4948L480.901 138.157L649.302 27.4972L649.302 61.9322L480.901 172.592L312.503 61.9346L144.285 172.595L-24.1204 61.9336Z" fill="#A0A0A0" fill-opacity="0.13"/>
<path d="M-24.1204 167.423V132.988L144.277 243.644L312.496 132.984L480.901 243.646L649.302 132.986L649.302 167.421L480.901 278.081L312.503 167.424L144.285 278.084L-24.1204 167.423Z" fill="#A0A0A0" fill-opacity="0.13"/>
<path d="M-24.1204 272.912V238.477L144.277 349.133L312.496 238.473L480.901 349.135L649.302 238.475L649.302 272.91L480.901 383.57L312.503 272.913L144.285 383.573L-24.1204 272.912Z" fill="#A0A0A0" fill-opacity="0.13"/>
<path d="M-24.1204 378.401V343.966L144.277 454.622L312.496 343.962L480.901 454.625L649.302 343.964L649.302 378.399L480.901 489.059L312.503 378.402L144.285 489.062L-24.1204 378.401Z" fill="#A0A0A0" fill-opacity="0.13"/>
<path d="M-24.1204 483.89V449.455L144.277 560.111L312.496 449.451L480.901 560.114L649.302 449.453L649.302 483.888L480.901 594.548L312.503 483.891L144.285 594.551L-24.1204 483.89Z" fill="#A0A0A0" fill-opacity="0.13"/>
<path d="M-24.1204 589.379V554.944L144.277 665.6L312.496 554.94L480.901 665.603L649.302 554.943L649.302 589.378L480.901 700.038L312.503 589.38L144.285 700.04L-24.1204 589.379Z" fill="#A0A0A0" fill-opacity="0.13"/>
</svg>
