<?xml version="1.0" encoding="UTF-8" standalone="no"?>
<svg
   width="200mm"
   height="201mm"
   viewBox="0 0 200 201"
   version="1.1"
   id="svg2326"
   sodipodi:docname="back-text-1.svg"
   inkscape:export-filename="back-text-1.svg"
   inkscape:export-xdpi="96"
   inkscape:export-ydpi="96"
   inkscape:version="1.2.2 (732a01da63, 2022-12-09)"
   xmlns:inkscape="http://www.inkscape.org/namespaces/inkscape"
   xmlns:sodipodi="http://sodipodi.sourceforge.net/DTD/sodipodi-0.dtd"
   xmlns="http://www.w3.org/2000/svg"
   xmlns:svg="http://www.w3.org/2000/svg">
  <sodipodi:namedview
     id="namedview23"
     pagecolor="#ffffff"
     bordercolor="#666666"
     borderopacity="1.0"
     inkscape:showpageshadow="2"
     inkscape:pageopacity="0.0"
     inkscape:pagecheckerboard="0"
     inkscape:deskcolor="#d1d1d1"
     inkscape:document-units="mm"
     showgrid="false"
     inkscape:zoom="0.57721289"
     inkscape:cx="127.33603"
     inkscape:cy="585.5725"
     inkscape:window-width="1920"
     inkscape:window-height="1057"
     inkscape:window-x="-8"
     inkscape:window-y="-8"
     inkscape:window-maximized="1"
     inkscape:current-layer="svg2326" />
  <defs
     id="defs2323" />
  <g
     id="layer1"
     style="fill:#f4a261;fill-opacity:1"
     inkscape:export-filename=".\layer1.svg"
     inkscape:export-xdpi="96"
     inkscape:export-ydpi="96">
    <g
       aria-label="       BACK         BACK         BACK        BACKK"
       transform="matrix(-0.82669995,0,0,-0.82669995,183.03666,184.28434)"
       id="text2887"
       style="font-weight:600;font-size:25.6038px;line-height:1.35;font-family:'Neue Metana Next Free Personal';-inkscape-font-specification:'Neue Metana Next Free Personal Semi-Bold';letter-spacing:0px;word-spacing:0px;stroke-width:0.264583;fill:#f4a261;fill-opacity:1">
      <path
         d="m 177.0069,161.69222 0.70196,0.51485 c -1.47022,2.35091 -2.08428,4.78997 0.3726,6.59193 3.05561,2.24109 5.71649,-0.34787 7.74559,-3.11444 l 5.72387,-7.8042 -14.45223,-10.59976 -6.40528,8.73328 c -1.9231,2.62204 -2.96116,5.63919 -0.0294,7.78943 2.62205,1.9231 4.43085,0.10628 6.34291,-2.11109 z m 6.64958,2.14635 c -1.22654,1.67233 -2.64574,2.56832 -4.13226,1.47806 -1.40393,-1.02969 -1.33499,-2.72549 -0.21445,-4.2533 l 3.52821,-4.81053 4.14985,3.04365 z m -10.60112,-6.75915 3.81591,-5.2028 4.31502,3.16478 -3.51306,4.78988 c -1.25683,1.71362 -2.78613,2.3701 -4.29329,1.2647 -1.44522,-1.05998 -1.33913,-2.63328 -0.32458,-4.01656 z"
         id="path4015"
         style="fill:#f4a261;fill-opacity:1" />
      <path
         d="m 163.97975,168.54328 -6.59246,5.72439 -3.35804,-1.73514 -3.2949,2.84414 17.27373,8.76568 4.22523,-3.64719 -6.14858,-18.36883 -3.31429,2.86087 z m 4.23736,11.02162 c 0.31339,0.67653 1.3323,1.38671 1.85358,1.95143 l -0.71712,0.61902 c -0.48518,-0.56207 -1.03892,-1.67378 -1.6818,-2.06589 l -8.32502,-4.55056 5.56257,-4.80157 z"
         id="path4017"
         style="fill:#f4a261;fill-opacity:1" />
      <path
         d="m 137.25338,190.23366 c -1.05409,-2.88109 0.61678,-5.81943 4.02179,-7.53986 4.02203,-2.03218 7.53072,-0.87897 9.35506,2.73172 1.88208,3.72494 0.68388,7.42848 -3.41825,9.47244 -3.21089,1.59366 -6.93246,1.55204 -8.65265,-1.79572 l -3.29099,1.60544 c 2.34394,4.63904 7.75106,5.23465 12.98427,2.59051 5.89592,-2.97899 8.28918,-8.40511 5.63349,-13.66117 -2.47094,-4.89042 -7.62958,-6.30006 -13.38839,-3.39035 -5.1875,2.62105 -8.29327,7.43184 -6.44367,11.60349 z"
         id="path4019"
         style="fill:#f4a261;fill-opacity:1" />
      <path
         d="m 115.13453,197.71375 c 0.63934,0.61581 2.3587,0.67026 4.18102,0.25481 0.87372,-0.19919 1.7746,-0.50962 2.59709,-0.93348 0.67841,-0.36475 1.61084,-0.99749 2.17013,-1.30882 l 0.15715,0.80451 c -1.88104,0.84901 -4.0989,2.06368 -5.03056,3.85172 l -4.95553,7.40608 4.19383,-0.95611 6.62122,-9.54529 1.2232,-0.27886 1.74148,7.63876 3.41997,-0.77968 -3.98378,-17.4743 -3.41997,0.77968 1.57644,6.91483 -8.86197,2.02035 0.88355,-7.52818 -7.26432,1.65612 0.64879,2.84581 2.82085,-0.64309 c 0.22221,3.04811 0.002,4.96278 1.28141,5.27514 z"
         id="path4021"
         style="fill:#f4a261;fill-opacity:1" />
      <path
         d="m 36.187839,175.34778 -0.538687,0.68384 c -2.298947,-1.55022 -4.715443,-2.24783 -6.600849,0.14561 -2.344874,2.97672 0.151026,5.72508 2.84616,7.84815 l 7.602691,5.98893 11.090621,-14.07906 -8.507773,-6.7019 c -2.554344,-2.01216 -5.534002,-3.15338 -7.783814,-0.29734 -2.012155,2.55434 -0.25863,4.42456 1.891651,6.41177 z m -2.373817,6.57181 c -1.629148,-1.28334 -2.475787,-2.73252 -1.335038,-4.18065 1.077375,-1.36768 2.769805,-1.24046 4.258163,-0.068 l 4.686315,3.69159 -3.184593,4.0427 z m 7.119821,-10.36234 5.068461,3.99262 -3.311343,4.20361 -4.666202,-3.67575 c -1.669374,-1.31503 -2.272855,-2.86601 -1.116262,-4.33425 1.109063,-1.40791 2.677779,-1.24776 4.025346,-0.18623 z"
         id="path4023"
         style="fill:#f4a261;fill-opacity:1" />
      <path
         d="m 29.788118,162.09368 -5.494497,-6.78526 1.849499,-3.29644 -2.729248,-3.39068 -9.354021,16.96235 3.49986,4.34805 18.569248,-5.51381 -2.745303,-3.41063 z m -11.1607,3.85616 c -0.686901,0.28996 -1.431672,1.28386 -2.013973,1.78544 l -0.594013,-0.73798 c 0.57841,-0.46557 1.708487,-0.98079 2.122463,-1.60982 l 4.833909,-8.16375 4.607614,5.72427 z"
         id="path4025"
         style="fill:#f4a261;fill-opacity:1" />
      <path
         d="m 9.0324883,134.63358 c 2.9158937,-0.9536 5.7945547,0.81811 7.3959267,4.28071 1.891554,4.09005 0.617427,7.55666 -3.054319,9.25475 -3.7879414,1.75184 -7.4477215,0.426 -9.3482787,-3.74451 -1.4814061,-3.26419 -1.3108225,-6.98209 2.0945487,-8.5852 l -1.4904096,-3.34466 c -4.71749718,2.18173 -5.50016121,7.56496 -3.0389919,12.88667 2.7728458,5.99564 8.1127605,8.57552 13.4577085,6.10361 4.973125,-2.29996 6.560714,-7.40663 3.852353,-13.26284 -2.439674,-5.27523 -7.139931,-8.54587 -11.3731827,-6.84197 z"
         id="path4027"
         style="fill:#f4a261;fill-opacity:1" />
      <path
         d="m 2.3256513,112.26782 c -0.637602,0.6176 -0.7516385,2.33405 -0.3996225,4.16968 0.1687748,0.88009 0.4477762,1.79119 0.8428615,2.62789 0.3410068,0.69064 0.9410441,1.64446 1.2327946,2.2142 l -0.8094816,0.12916 c -0.7832784,-1.90935 -1.9203128,-4.16798 -3.67497818,-5.16108 l -7.22980062,-5.20935 0.8101189,4.22446 9.3099715,6.94821 0.2362847,1.23213 -7.6945559,1.47558 0.6606327,3.44494 17.6019256,-3.37549 -0.660633,-3.44495 -6.9653334,1.33573 -1.7118584,-8.92669 7.4930158,1.14404 -1.4032415,-7.31737 -2.8665992,0.54972 0.5449014,2.84146 c -3.0539801,0.11639 -4.9598717,-0.16988 -5.3164024,1.09773 z"
         id="path4029"
         style="fill:#f4a261;fill-opacity:1" />
      <path
         d="m 27.399839,34.143783 -0.664923,-0.56187 c 1.628314,-2.244313 2.408552,-4.635407 0.08132,-6.601955 -2.894369,-2.44579 -5.726889,-0.04582 -7.941321,2.57476 l -6.246682,7.392376 13.689586,11.567929 6.990334,-8.272421 c 2.098753,-2.483682 3.341709,-5.422359 0.564678,-7.768996 -2.483682,-2.098753 -4.413066,-0.410539 -6.472994,1.670177 z m -6.48635,-2.59827 c 1.338575,-1.58408 2.815994,-2.380415 4.224066,-1.190571 1.329846,1.123741 1.144529,2.810799 -0.07837,4.257984 l -3.850468,4.556677 -3.930867,-3.321649 z m 10.11153,7.471741 -4.164455,4.928251 -4.087319,-3.453853 3.833942,-4.53712 c 1.371626,-1.623194 2.942427,-2.173016 4.370055,-0.966646 1.368959,1.156793 1.154993,2.719079 0.04778,4.029368 z"
         id="path4031"
         style="fill:#f4a261;fill-opacity:1" />
      <path
         d="m 40.865484,28.202649 6.97019,-5.257914 3.230888,1.961764 3.482531,-2.611034 -16.630651,-9.931795 -4.465835,3.348268 4.871987,18.747876 3.503017,-2.626393 z M 37.395401,16.915943 c -0.266169,-0.696466 -1.233869,-1.474975 -1.715125,-2.07418 l 0.757963,-0.568284 c 0.445412,0.594079 0.92146,1.741205 1.535882,2.176567 l 7.992695,5.111787 -5.879333,4.408041 z"
         id="path4033"
         style="fill:#f4a261;fill-opacity:1" />
      <path
         d="m 69.027556,8.4077416 c 0.851852,2.9472264 -1.018681,5.7626784 -4.534757,7.2429394 -4.153218,1.748496 -7.57353,0.354851 -9.143202,-3.373606 -1.619346,-3.8464464 -0.16732,-7.4580182 4.066626,-9.2127205 3.313631,-1.3672515 7.023372,-1.0677652 8.507361,2.391181 L 71.317943,4.0820779 C 69.301212,-0.70828137 63.94838,-1.677264 58.544477,0.59776807 52.456238,3.1609046 49.692618,8.4080857 51.977585,13.835586 c 2.126012,5.049936 7.174525,6.813763 13.121178,4.310234 5.356707,-2.255163 8.788474,-6.839102 7.232489,-11.1289276 z"
         id="path4035"
         style="fill:#f4a261;fill-opacity:1" />
      <path
         d="M 91.611705,2.4817136 C 91.016522,1.8231292 89.305053,1.6497866 87.458346,1.9380947 86.572938,2.0763246 85.652733,2.3236428 84.80287,2.6895489 84.100842,3.0064611 83.126841,3.5731454 82.54735,3.8450132 L 82.446266,3.0315481 c 1.935301,-0.7167624 4.231916,-1.7749866 5.285116,-3.49424914 l 5.45632,-7.04527446 -4.249957,0.6635034 -7.266092,9.0640507 -1.239571,0.1935219 -1.208524,-7.7409933 -3.465739,0.5410713 2.764597,17.7081545 3.465739,-0.541071 -1.093991,-7.00737 8.980565,-1.4020459 -1.40255,7.4489579 7.361533,-1.149283 -0.450234,-2.8838996 -2.858603,0.4462851 c -0.01068,-3.0561786 0.341346,-4.9510271 -0.91317,-5.3511929 z"
         id="path4037"
         style="fill:#f4a261;fill-opacity:1" />
      <path
         d="m 163.43393,25.331081 0.53524,-0.686539 c 2.30671,1.538646 4.72668,2.224093 6.60004,-0.178793 2.32988,-2.988464 -0.17981,-5.72425 -2.88558,-7.833738 l -7.63269,-5.950645 -11.01972,14.134626 8.54135,6.659055 c 2.56443,1.999291 5.54979,3.125526 7.78521,0.258217 1.99929,-2.564425 0.23639,-4.425813 -1.92385,-6.402183 z m 2.34075,-6.583662 c 1.63558,1.275139 2.48949,2.720044 1.35604,4.173891 -1.07049,1.373078 -2.76354,1.254359 -4.25777,0.08942 l -4.70481,-3.66799 3.16423,-4.058657 z m -7.06764,10.397997 -5.08847,-3.967097 3.29017,-4.220196 4.68462,3.652248 c 1.67597,1.306624 2.28723,2.854547 1.13804,4.328587 -1.10198,1.413462 -2.67148,1.261202 -4.02436,0.206458 z"
         id="path4039"
         style="fill:#f4a261;fill-opacity:1" />
      <path
         d="m 169.90005,38.552937 5.52851,6.757566 -1.83291,3.305689 2.74625,3.376929 9.26868,-17.009133 -3.52166,-4.330414 -18.54131,5.607034 2.7624,3.396793 z m 11.14118,-3.912184 c 0.68544,-0.293409 1.42521,-1.291037 2.00498,-1.795534 l 0.59771,0.734979 c -0.57606,0.468478 -1.70353,0.989363 -2.11434,1.620465 l -4.79284,8.187936 -4.63631,-5.70105 z"
         id="path4041"
         style="fill:#f4a261;fill-opacity:1" />
      <path
         d="m 190.79397,65.907808 c -2.91102,0.968375 -5.79863,-0.788721 -7.41754,-4.243154 -1.91226,-4.080404 -0.65573,-7.553429 3.00736,-9.270122 3.77901,-1.77102 7.44547,-0.463756 9.36714,3.697066 1.49794,3.25664 1.34621,6.975356 -2.05099,8.595717 l 1.50735,3.337059 c 4.70637,-2.205626 5.46173,-7.592755 2.97361,-12.901917 -2.8032,-5.981501 -8.15613,-8.53428 -13.48848,-6.035296 -4.9614,2.325142 -6.52307,7.439801 -3.78506,13.282197 2.46639,5.262794 7.18317,8.509565 11.40773,6.784226 z"
         id="path4043"
         style="fill:#f4a261;fill-opacity:1" />
      <path
         d="m 197.59414,88.276815 c 0.63694,-0.61829 0.74914,-2.334852 0.39516,-4.170104 -0.16972,-0.879915 -0.44969,-1.790715 -0.84567,-2.626988 -0.34175,-0.69028 -0.94281,-1.643454 -1.23517,-2.212881 l 0.80935,-0.130029 c 0.78532,1.90851 1.92477,4.165927 3.6805,5.157146 l 7.23537,5.201608 -0.81464,-4.223592 -9.3174,-6.938238 -0.23761,-1.231881 7.69298,-1.483807 -0.66432,-3.44424 -17.59831,3.394331 0.66432,3.444239 6.9639,-1.343185 1.72141,8.924853 -7.49423,-1.136019 1.41107,7.315866 2.86601,-0.552791 -0.54794,-2.840869 c 3.05385,-0.11966 4.96005,0.164569 5.31522,-1.103419 z"
         id="path4045"
         style="fill:#f4a261;fill-opacity:1" />
      <path
         d="m 574.57499,-8.2956311 c -0.48647,-0.7425102 -2.15072,-1.1777748 -4.0198,-1.1777748 -0.89613,0 -1.84347,0.1024152 -2.7396,0.3328494 -0.74251,0.2048304 -1.79227,0.6144912 -2.40676,0.7937178 l 0.0256,-0.8193216 c 2.0227,-0.4096608 4.45507,-1.1009637 5.76086,-2.6371917 l 6.47776,-6.119308 h -4.30144 l -8.57727,7.834763 h -1.25459 v -7.834763 h -3.50772 V 0 h 3.50772 v -7.0922526 h 9.08935 l -2.53477,7.1434602 h 7.4507 v -2.9188332 h -2.89323 c 0.46087,-3.0212484 1.10097,-4.8391181 -0.0768,-5.4280055 z"
         id="path4047"
         style="fill:#f4a261;fill-opacity:1" />
    </g>
  </g>
</svg>
