<?xml version="1.0" encoding="UTF-8" standalone="no"?>
<svg
   width="100"
   height="100"
   viewBox="0 0 100 100"
   fill="none"
   version="1.1"
   id="svg10"
   sodipodi:docname="favicon.svg"
   inkscape:export-filename="visit.png"
   inkscape:export-xdpi="96"
   inkscape:export-ydpi="96"
   inkscape:version="1.2.2 (b0a8486541, 2022-12-01)"
   xmlns:inkscape="http://www.inkscape.org/namespaces/inkscape"
   xmlns:sodipodi="http://sodipodi.sourceforge.net/DTD/sodipodi-0.dtd"
   xmlns="http://www.w3.org/2000/svg"
   xmlns:svg="http://www.w3.org/2000/svg">
  <defs
     id="defs14" />
  <sodipodi:namedview
     id="namedview12"
     pagecolor="#ffffff"
     bordercolor="#666666"
     borderopacity="1.0"
     inkscape:showpageshadow="2"
     inkscape:pageopacity="0.0"
     inkscape:pagecheckerboard="0"
     inkscape:deskcolor="#d1d1d1"
     showgrid="false"
     inkscape:zoom="7.82"
     inkscape:cx="50"
     inkscape:cy="38.363171"
     inkscape:window-width="1920"
     inkscape:window-height="1011"
     inkscape:window-x="0"
     inkscape:window-y="0"
     inkscape:window-maximized="1"
     inkscape:current-layer="svg10" />
  <circle
     cx="50"
     cy="50"
     r="50"
     fill="#e5e5e5"
     id="circle2" />
  <circle
     cx="50"
     cy="50"
     r="40"
     fill="#000000"
     id="circle4" />
  <circle
     cx="50"
     cy="50"
     r="35"
     fill="#e5e5e5"
     id="circle6" />
  <g
     aria-label="YG"
     id="text906"
     style="font-size:40px;line-height:1.25;font-family:'Grand Hotel';-inkscape-font-specification:'Grand Hotel, Normal';letter-spacing:3.47px;word-spacing:0px;fill:#000000">
    <path
       d="M 46.025009,54.8 V 64 h -2.4 v -9.2 l -2.28,-18.8 h 2.48 l 0.8,9.64 0.16,4 h 0.08 l 0.16,-4 0.8,-9.64 h 2.48 z"
       style="font-family:Humane;-inkscape-font-specification:Humane"
       id="path168" />
    <path
       d="M 58.65499,49.24 V 64 h -2.4 v -1.6 h -0.08 q -0.44,1.84 -1.8,1.84 -0.96,0 -1.56,-0.84 -0.56,-0.88 -0.56,-2.36 V 38.96 q 0,-1.48 0.88,-2.32 0.88,-0.88 2.36,-0.88 1.48,0 2.32,0.88 0.84,0.84 0.84,2.32 v 7.64 h -2.4 v -7.32 q 0,-1.28 -0.8,-1.28 -0.8,0 -0.8,1.28 v 21.44 q 0,1.28 0.8,1.28 0.8,0 0.8,-1.44 v -9.08 h -0.8 v -2.24 z"
       style="font-family:Humane;-inkscape-font-specification:Humane"
       id="path170" />
  </g>
</svg>
