<svg width="480" height="144" viewBox="0 0 480 144" fill="none" xmlns="http://www.w3.org/2000/svg">
<path d="M34.8 1.99999H22.4L18.4 50.2L17.6 70.2H17.2L16.4 50.2L12.4 1.99999H0L11.4 96V142H23.4V96L34.8 1.99999ZM57.8125 1.99999H41.8125L32.8125 142H44.0125L46.0125 105.2H53.6125L55.6125 142H68.2125L57.8125 1.99999ZM46.6125 94L48.8125 54.2L49.6125 19.8H50.0125L51.0125 54.2L53.0125 94H46.6125ZM102.764 99C102.764 84.6 97.3641 75.2 92.1641 66.4C87.3641 58.2 82.7641 50.2 82.7641 38.6V18.4C82.7641 13.8 83.9641 12 86.7641 12C89.5641 12 90.7641 13.8 90.7641 18.4V45H102.764V16.8C102.764 7 96.7641 0.799994 86.9641 0.799994C77.1641 0.799994 70.7641 7 70.7641 16.8V38.6C70.7641 53.2 76.1641 62.6 81.3641 71.4C86.1641 79.6 90.7641 87.4 90.7641 99V125.6C90.7641 130 89.5641 132 86.7641 132C83.9641 132 82.7641 130 82.7641 125.6V92.8H70.7641V127.2C70.7641 137 76.7641 143.2 86.5641 143.2C96.3641 143.2 102.764 137 102.764 127.2V99ZM139.678 99C139.678 84.6 134.278 75.2 129.078 66.4C124.278 58.2 119.678 50.2 119.678 38.6V18.4C119.678 13.8 120.878 12 123.678 12C126.478 12 127.678 13.8 127.678 18.4V45H139.678V16.8C139.678 7 133.678 0.799994 123.878 0.799994C114.078 0.799994 107.678 7 107.678 16.8V38.6C107.678 53.2 113.078 62.6 118.278 71.4C123.078 79.6 127.678 87.4 127.678 99V125.6C127.678 130 126.478 132 123.678 132C120.878 132 119.678 130 119.678 125.6V92.8H107.678V127.2C107.678 137 113.678 143.2 123.478 143.2C133.278 143.2 139.678 137 139.678 127.2V99ZM156.992 1.99999H144.992V142H156.992V1.99999ZM202.161 1.99999H190.961L191.561 72.6L193.361 118.4H192.961L179.361 1.99999H162.961V142H174.161L173.561 73L171.761 25H172.161L185.761 142H202.161V1.99999ZM228.078 1.99999H208.078V142H229.078V130.8H220.078V75.8H227.078V64.6H220.078V13.2H228.078V1.99999ZM265.484 68.2V79.4H269.484V124.8C269.484 129.8 268.284 132 265.484 132C262.684 132 261.484 130 261.484 125.6V18.4C261.484 13.8 262.684 12 265.484 12C268.284 12 269.484 13.8 269.484 18.4V55H281.484V16.8C281.484 7 275.484 0.799994 265.684 0.799994C255.884 0.799994 249.484 7 249.484 16.8V127.2C249.484 137 253.684 143.2 260.084 143.2C264.484 143.2 267.684 139.8 269.084 134H269.484V142H281.484V68.2H265.484ZM319.57 16.8C319.57 7 313.57 0.799994 303.77 0.799994C293.97 0.799994 287.57 7 287.57 16.8V127.2C287.57 137 293.97 143.2 303.77 143.2C313.57 143.2 319.57 137 319.57 127.2V16.8ZM307.57 18.4V125.6C307.57 130 306.37 132 303.57 132C300.77 132 299.57 130 299.57 125.6V18.4C299.57 13.8 300.77 12 303.57 12C306.37 12 307.57 13.8 307.57 18.4ZM357.656 1.99999H345.656V125.6C345.656 130 344.456 132 341.656 132C338.856 132 337.656 130 337.656 125.6V1.99999H325.656V127.2C325.656 137 332.056 143.2 341.856 143.2C351.656 143.2 357.656 137 357.656 127.2V1.99999ZM416.142 1.99999H396.742L391.142 83.8L390.142 114.2H389.742L388.742 83.6L383.142 1.99999H363.742V142H374.942V52L374.542 21.8H374.942L376.542 52L382.942 142H396.942L403.342 52L404.942 22H405.342L404.942 52V142H416.142V1.99999ZM461.341 1.99999H450.141L450.741 72.6L452.541 118.4H452.141L438.541 1.99999H422.141V142H433.341L432.741 73L430.941 25H431.341L444.941 142H461.341V1.99999ZM479.258 1.99999H467.258V142H479.258V1.99999Z" fill="white"/>
</svg>
